<svg id="visual" viewBox="0 0 900 600" width="900" height="600" xmlns="http://www.w3.org/2000/svg" xmlns:xlink="http://www.w3.org/1999/xlink" version="1.1"><rect x="0" y="0" width="900" height="600" fill="#ffffff"></rect><defs><linearGradient id="grad1_0" x1="33.3%" y1="0%" x2="100%" y2="100%"><stop offset="20%" stop-color="#ffffff" stop-opacity="1"></stop><stop offset="80%" stop-color="#ffffff" stop-opacity="1"></stop></linearGradient></defs><defs><linearGradient id="grad2_0" x1="0%" y1="0%" x2="66.7%" y2="100%"><stop offset="20%" stop-color="#ffffff" stop-opacity="1"></stop><stop offset="80%" stop-color="#ffffff" stop-opacity="1"></stop></linearGradient></defs><g transform="translate(900, 0)"><path d="M0 351.5C-55.2 332.1 -110.4 312.7 -165 285.8C-219.6 258.9 -273.5 224.6 -304.4 175.8C-335.4 126.9 -343.5 63.5 -351.5 0L0 0Z" fill="#ebffb7"></path></g><g transform="translate(0, 600)"><path d="M0 -351.5C62 -342.6 123.9 -333.7 175.8 -304.4C227.6 -275.2 269.4 -225.6 297 -171.5C324.7 -117.4 338.1 -58.7 351.5 0L0 0Z" fill="#ebffb7"></path></g></svg>