<svg id="visual" viewBox="0 0 900 600" width="900" height="600" xmlns="http://www.w3.org/2000/svg" xmlns:xlink="http://www.w3.org/1999/xlink" version="1.1"><rect x="0" y="0" width="900" height="600" fill="#ffffff"></rect><defs><linearGradient id="grad1_0" x1="33.3%" y1="0%" x2="100%" y2="100%"><stop offset="20%" stop-color="#ffffff" stop-opacity="1"></stop><stop offset="80%" stop-color="#ffffff" stop-opacity="1"></stop></linearGradient></defs><defs><linearGradient id="grad2_0" x1="0%" y1="0%" x2="66.7%" y2="100%"><stop offset="20%" stop-color="#ffffff" stop-opacity="1"></stop><stop offset="80%" stop-color="#ffffff" stop-opacity="1"></stop></linearGradient></defs><g transform="translate(900, 0)"><path d="M0 297.5C-54.1 290.9 -108.1 284.3 -148.7 257.6C-189.3 231 -216.5 184.3 -239 138C-261.6 91.7 -279.5 45.9 -297.5 0L0 0Z" fill="#ebffb7"></path></g><g transform="translate(0, 600)"><path d="M0 -297.5C56.7 -292.4 113.4 -287.3 148.7 -257.6C184 -227.9 197.9 -173.5 219.1 -126.5C240.3 -79.5 268.9 -39.7 297.5 0L0 0Z" fill="#ebffb7"></path></g></svg>